<?xml version="1.0" encoding="UTF-8"?>
<!DOCTYPE svg PUBLIC "-//W3C//DTD SVG 1.1//EN" "http://www.w3.org/Graphics/SVG/1.1/DTD/svg11.dtd">
<svg xmlns="http://www.w3.org/2000/svg" version="1.1" width="78px" height="105px" style="shape-rendering:geometricPrecision; text-rendering:geometricPrecision; image-rendering:optimizeQuality; fill-rule:evenodd; clip-rule:evenodd" xmlns:xlink="http://www.w3.org/1999/xlink">
<g><path style="opacity:0.874" fill="#89ff00" d="M 33.5,32.5 C 35.4882,37.9255 38.1549,43.0921 41.5,48C 43.7597,48.0442 45.7597,47.2108 47.5,45.5C 48.5472,46.9223 48.5472,48.4223 47.5,50C 47.7591,51.2613 48.4258,52.2613 49.5,53C 55.0055,53.3742 60.3388,53.5409 65.5,53.5C 60.4948,55.5529 55.6614,57.8862 51,60.5C 50.8707,63.3037 51.204,65.9703 52,68.5C 48.9141,66.78 46.5808,67.4466 45,70.5C 45.4659,75.6006 45.4659,80.6006 45,85.5C 43,80.8333 41,76.1667 39,71.5C 36.4199,69.3088 33.9199,69.6421 31.5,72.5C 30.2528,70.9936 30.2528,69.4936 31.5,68C 30.8333,67 30.1667,66 29.5,65C 24.0444,64.677 18.711,64.5103 13.5,64.5C 18.554,62.5559 23.3873,60.2226 28,57.5C 28.9201,54.6917 28.0867,52.5251 25.5,51C 26,50.5 26.5,50 27,49.5C 31.3079,51.6019 33.8079,50.2685 34.5,45.5C 33.8342,41.4361 33.5009,37.1028 33.5,32.5 Z"/></g>
</svg>
